<svg version="1.1" id="Layer_1" xmlns="http://www.w3.org/2000/svg" xmlns:xlink="http://www.w3.org/1999/xlink" x="0px" y="0px"
	 width="100%" viewBox="0 0 1024 416" enable-background="new 0 0 1024 416" xml:space="preserve">
<path fill="#000000" opacity="1.000000" stroke="none" 
	d="
M58.362236,217.478394 
	C55.458431,215.022842 54.668522,212.184311 54.678535,208.793655 
	C54.755287,182.813004 54.704220,156.832001 54.730186,130.851151 
	C54.737144,123.885376 55.958679,122.675812 62.866795,122.671074 
	C88.847664,122.653267 114.828758,122.714722 140.809204,122.608009 
	C144.422867,122.593178 147.163895,123.699890 149.671143,126.246773 
	C162.286621,139.061600 174.964752,151.815277 187.693802,164.517334 
	C189.759216,166.578339 190.456482,168.866882 190.436340,171.688416 
	C190.360275,182.346649 190.531860,193.007858 190.348572,203.663452 
	C190.286591,207.265900 191.308105,209.943604 193.900513,212.493073 
	C205.417725,223.819443 216.715973,235.368332 228.218887,246.709488 
	C231.143204,249.592697 232.532455,252.663513 232.453964,256.851929 
	C232.235580,268.505890 232.403198,280.166718 232.376785,291.824707 
	C232.360046,299.216858 231.284988,300.327148 224.083282,300.332611 
	C198.268967,300.352112 172.454300,300.280182 146.640594,300.407471 
	C142.817078,300.426331 140.049622,299.151642 137.403717,296.496552 
	C111.191864,270.193634 84.898430,243.972031 58.362236,217.478394 
M96.354050,172.670746 
	C87.235207,161.828339 76.754128,152.326248 66.613747,142.490128 
	C66.473030,142.353638 66.013039,142.546280 65.623901,142.595108 
	C65.522537,143.041275 65.323647,143.510117 65.322685,143.979355 
	C65.279884,164.798477 65.287239,185.617767 65.186157,206.436569 
	C65.173347,209.073486 66.465111,210.745468 68.165131,212.441483 
	C89.034790,233.262070 109.895676,254.091537 130.697647,274.979675 
	C132.877151,277.168182 134.666367,279.745392 136.636658,282.142242 
	C137.110367,281.765930 137.584091,281.389618 138.057800,281.013275 
	C138.592453,273.613586 138.787247,266.201477 138.449295,258.775513 
	C138.328461,256.120178 136.914932,254.160507 135.063812,252.325699 
	C123.946396,241.306335 112.945190,230.169296 101.784592,219.194168 
	C98.424522,215.889938 96.400131,212.480392 96.542252,207.439316 
	C96.861237,196.124741 96.569839,184.792953 96.354050,172.670746 
M161.519867,289.885803 
	C179.811722,289.894440 198.104156,289.828735 216.394974,289.970367 
	C220.351974,290.001007 222.158234,288.895020 221.996475,284.605499 
	C221.727219,277.465271 221.855972,270.306488 221.956528,263.157471 
	C222.002075,259.920532 221.024719,258.309296 217.404572,258.328796 
	C196.120102,258.443512 174.834518,258.440247 153.549911,258.342804 
	C150.007370,258.326599 148.862396,259.796021 148.958694,263.125214 
	C149.102814,268.109650 148.948380,273.101898 148.997055,278.090057 
	C149.128891,291.600922 147.378433,289.718658 161.519867,289.885803 
M144.500000,206.070618 
	C154.498810,206.082184 164.500168,205.966431 174.495209,206.166489 
	C178.630676,206.249283 180.130402,204.676880 180.008835,200.595901 
	C179.805496,193.769821 179.874542,186.930695 180.020844,180.101166 
	C180.096893,176.549789 178.831177,174.988800 175.100769,175.009628 
	C153.937286,175.127884 132.772934,175.128021 111.609032,175.087799 
	C108.471420,175.081818 107.061966,176.225204 107.107880,179.479736 
	C107.213654,186.977127 107.210213,194.478973 107.068398,201.975571 
	C107.006683,205.237976 108.240463,206.271820 111.505417,206.208923 
	C122.167213,206.003662 132.834702,206.094131 144.500000,206.070618 
M122.501091,164.616745 
	C138.653778,164.616745 154.806458,164.616745 171.976746,164.616745 
	C170.667847,162.761337 170.285797,162.019073 169.724838,161.454636 
	C161.048645,152.724762 152.319122,144.047623 143.679276,135.282074 
	C141.838150,133.414185 139.694183,133.171921 137.303299,133.175262 
	C117.343178,133.203125 97.383003,133.183441 77.422913,133.217728 
	C76.358818,133.219559 75.056190,132.735916 73.977646,134.607697 
	C79.885185,140.450516 86.552338,145.876053 91.751877,152.460526 
	C99.592491,162.389511 109.040794,166.781967 122.501091,164.616745 
M203.503021,236.996857 
	C197.968124,231.454407 192.354233,225.987747 186.932693,220.336563 
	C184.341125,217.635239 181.528290,216.306915 177.692993,216.363800 
	C165.696228,216.541748 153.695251,216.438248 141.695908,216.441391 
	C133.279922,216.443588 124.863945,216.441818 116.446533,216.441818 
	C116.398399,219.509872 117.909721,220.242920 118.900856,221.242249 
	C126.646042,229.051514 134.525269,236.729614 142.181107,244.624695 
	C144.598389,247.117523 147.197891,248.044312 150.592804,248.028671 
	C169.924545,247.939713 189.257004,248.014832 208.589111,247.981796 
	C209.977463,247.979431 211.606567,248.544449 213.822372,245.877396 
	C210.549454,243.083664 207.276520,240.289917 203.503021,236.996857 
z"/>
<path fill="#000000" opacity="1.000000" stroke="none" 
	d="
M275.889282,186.854263 
	C275.886902,193.775360 275.886902,200.222061 275.886902,206.147095 
	C273.009064,207.766556 270.980530,207.214035 269.027161,207.296570 
	C266.781250,207.391464 265.637207,206.331940 265.638184,204.028305 
	C265.647949,180.900925 265.644104,157.773544 265.644104,134.130310 
	C270.956177,133.330841 276.061340,133.524704 281.121246,133.938614 
	C283.505310,134.133636 283.751678,136.691910 284.485352,138.476471 
	C290.560455,153.253021 296.572510,168.055542 302.667786,182.823700 
	C303.528595,184.909256 304.041321,187.239944 305.927795,188.886154 
	C307.582153,187.646408 307.851776,185.739563 308.521820,184.119370 
	C314.692078,169.199738 320.902100,154.294479 326.833771,139.279633 
	C328.464081,135.152954 330.606995,133.377396 335.277557,133.571533 
	C348.187103,134.108139 346.226776,131.918869 346.307922,144.820999 
	C346.426270,163.639008 346.346619,182.458344 346.324493,201.277084 
	C346.318085,206.738907 341.676941,209.473175 336.654144,207.019531 
	C334.293945,205.866577 334.909912,203.623871 334.900360,201.736176 
	C334.828766,187.580811 334.835510,173.425034 334.819275,159.269394 
	C334.815857,156.276642 334.818756,153.283875 334.004974,149.999603 
	C332.057587,154.569870 330.078674,159.126999 328.168732,163.712906 
	C322.729858,176.772247 317.249023,189.814957 311.947235,202.929932 
	C310.647125,206.145966 308.841583,207.477341 305.252625,207.467606 
	C301.675262,207.457886 299.942322,206.176041 298.617859,202.912430 
	C291.364929,185.040009 283.897064,167.254822 275.891693,149.528595 
	C275.891693,161.812347 275.891693,174.096115 275.889282,186.854263 
z"/>
<path fill="#000000" opacity="1.000000" stroke="none" 
	d="
M497.013092,133.674530 
	C502.998383,133.676102 508.486877,133.659576 513.975220,133.682968 
	C527.732788,133.741592 537.081604,141.984100 537.333313,154.255035 
	C537.610352,167.761780 528.781067,176.718292 514.602234,177.192902 
	C510.116394,177.343048 505.622009,177.235306 501.131531,177.249954 
	C494.434052,177.271790 494.432129,177.273453 494.416840,184.209579 
	C494.402496,190.695755 494.340546,197.182388 494.399536,203.667923 
	C494.438141,207.913696 491.408813,207.333328 488.821442,207.293137 
	C486.496277,207.257034 483.563843,208.141724 483.572784,204.011017 
	C483.622772,180.907623 483.596802,157.804077 483.596802,134.394485 
	C487.975677,133.037292 492.294464,133.953506 497.013092,133.674530 
M525.070923,150.762482 
	C522.645264,146.155136 518.731079,144.191376 513.631958,144.234009 
	C508.643585,144.275711 503.653259,144.313431 498.666351,144.218643 
	C495.769775,144.163589 494.353241,145.255524 494.417725,148.294525 
	C494.516418,152.948486 494.518829,157.608612 494.395660,162.261719 
	C494.312439,165.405579 495.503540,166.830994 498.779114,166.714737 
	C503.263306,166.555603 507.757690,166.706528 512.247375,166.675339 
	C522.344727,166.605209 526.764099,161.480743 525.070923,150.762482 
z"/>
<path fill="#000000" opacity="1.000000" stroke="none" 
	d="
M795.103699,193.483704 
	C792.527039,184.968521 792.259766,176.765335 794.441101,168.535065 
	C797.417969,157.303146 807.205444,150.488770 819.275879,151.165955 
	C832.441101,151.904541 841.365540,159.222275 843.233093,170.994080 
	C844.040100,176.081329 844.397583,181.151932 843.576111,186.368210 
	C841.629028,198.732132 834.999817,206.194809 823.623840,208.118149 
	C810.836060,210.280182 800.969971,205.318985 795.103699,193.483704 
M829.331787,165.265167 
	C820.745117,156.423904 808.676514,159.000397 805.267395,170.778778 
	C803.217834,177.859955 803.305176,185.239288 806.359863,192.223038 
	C808.521484,197.165161 812.668579,199.593277 817.835815,199.528992 
	C823.383972,199.459976 828.506775,197.711823 830.651672,191.873230 
	C833.858643,183.143707 834.159851,174.401627 829.331787,165.265167 
z"/>
<path fill="#000000" opacity="1.000000" stroke="none" 
	d="
M598.446533,203.575562 
	C588.222656,209.966110 577.890320,210.436508 567.987976,204.433899 
	C557.856567,198.292404 556.739929,187.770432 557.098145,177.183334 
	C557.236267,173.101746 557.771057,168.922974 559.570740,165.054016 
	C564.516602,154.421448 574.822144,149.640152 588.463806,151.762100 
	C598.622681,153.342316 606.052734,161.753464 607.431091,172.729263 
	C608.037964,177.562439 608.086792,182.281830 607.427246,187.105530 
	C606.531067,193.659256 603.956482,199.177078 598.446533,203.575562 
M568.310608,174.984421 
	C568.276123,180.134872 567.724670,185.326462 569.517578,190.332611 
	C571.565125,196.049728 576.178467,199.529770 581.843750,199.636200 
	C588.173157,199.755096 593.126770,196.403915 595.263794,190.458206 
	C597.532166,184.146912 597.503296,177.616425 595.962097,171.267746 
	C593.909302,162.811630 587.739746,158.875702 579.567383,160.460129 
	C572.214722,161.885651 569.501526,167.427628 568.310608,174.984421 
z"/>
<path fill="#000000" opacity="1.000000" stroke="none" 
	d="
M998.317200,187.907547 
	C994.911011,202.624847 986.035828,209.039597 970.648865,208.310349 
	C958.492981,207.734207 950.329041,199.572571 948.558777,186.136658 
	C947.242737,176.148239 947.534729,166.324997 954.987488,158.568100 
	C962.728943,150.510849 972.526978,149.619781 982.662354,152.818542 
	C992.385925,155.887299 997.224243,163.065765 998.476746,173.124573 
	C999.080811,177.975739 999.174561,182.701416 998.317200,187.907547 
M960.627380,169.318665 
	C958.424255,175.288132 958.798950,181.488983 959.769592,187.509354 
	C960.969543,194.952194 966.377136,199.529282 972.863098,199.639435 
	C980.063477,199.761749 985.259644,195.819611 987.052612,188.140747 
	C988.418213,182.292343 988.434082,176.260956 986.759644,170.419708 
	C984.955566,164.126709 980.948853,160.767288 975.251648,160.311523 
	C968.189941,159.746613 964.193848,162.068054 960.627380,169.318665 
z"/>
<path fill="#000000" opacity="1.000000" stroke="none" 
	d="
M377.939392,175.941315 
	C374.931335,168.188126 372.059967,160.795212 369.193451,153.414795 
	C377.065002,150.330490 379.920990,151.530304 382.655579,158.517609 
	C386.831421,169.187546 391.031464,179.848022 395.737427,191.826370 
	C399.079498,183.226227 401.946899,175.854980 404.808197,168.481384 
	C406.132721,165.068176 407.433838,161.645844 408.765808,158.235580 
	C411.311157,151.718826 413.497986,150.761200 420.876678,153.151855 
	C420.381256,157.952301 417.923065,162.151306 416.196564,166.535950 
	C409.858856,182.631439 404.358948,199.072861 396.820282,214.676025 
	C393.654144,221.229065 389.080505,226.442963 381.210785,227.183151 
	C373.764008,227.883575 371.697815,225.311783 373.493256,217.302765 
	C380.200989,219.034119 385.451782,217.307327 388.354126,210.385254 
	C389.465881,207.733734 389.635864,205.426331 388.548889,202.758209 
	C384.970612,193.974930 381.554504,185.125565 377.939392,175.941315 
z"/>
<path fill="#000000" opacity="1.000000" stroke="none" 
	d="
M765.640991,138.430389 
	C760.199585,141.055862 760.893188,145.824875 761.667358,149.893524 
	C762.345154,153.455582 766.135071,151.863800 768.542603,151.919449 
	C772.361389,152.007751 774.606628,153.008011 774.243530,157.386658 
	C774.018677,160.098190 772.861755,161.325424 770.187744,161.251617 
	C768.855835,161.214874 767.508240,161.388367 766.190979,161.248215 
	C762.516418,160.857239 761.218079,162.346359 761.277588,166.087784 
	C761.463013,177.750702 761.350647,189.418564 761.328857,201.084457 
	C761.317810,207.017181 758.650330,208.868347 752.885925,207.204697 
	C750.056152,206.388000 750.723267,204.157211 750.711731,202.316971 
	C750.638794,190.651474 750.658508,178.985321 750.668213,167.319397 
	C750.670715,164.309113 751.228638,161.203003 746.568909,160.950745 
	C744.393921,160.832962 744.723083,158.495667 744.724182,156.887527 
	C744.725342,155.135956 744.174500,152.719498 746.681519,152.405930 
	C750.717712,151.901123 750.804932,149.280624 750.665527,146.277313 
	C750.611511,145.113510 750.634705,143.943420 750.677979,142.778229 
	C751.099976,131.395721 761.677551,125.327499 771.803833,130.665436 
	C775.450928,132.587906 774.205627,135.546295 773.627014,138.365097 
	C770.927551,138.365097 768.479187,138.365097 765.640991,138.430389 
z"/>
<path fill="#000000" opacity="1.000000" stroke="none" 
	d="
M711.247864,146.747559 
	C710.694397,151.553909 713.312134,152.026077 716.755615,152.068893 
	C719.146179,152.098618 722.384644,150.861832 723.293396,154.749435 
	C724.381348,159.403183 723.004089,161.136139 718.162598,161.268906 
	C711.233215,161.458893 711.237671,161.458893 711.238953,168.514832 
	C711.240356,176.171112 711.194275,183.827621 711.239319,191.483612 
	C711.283630,199.024277 712.805054,200.313889 720.161194,199.293106 
	C720.952698,199.183258 721.760925,199.193909 722.521973,199.150909 
	C724.320557,205.983826 723.279846,207.606995 716.868896,208.242645 
	C706.259155,209.294647 701.363708,205.918472 700.384705,195.249207 
	C699.521118,185.837128 699.955933,176.305405 699.830750,166.826355 
	C699.795654,164.166733 700.254333,161.419083 696.214722,161.048721 
	C693.809265,160.828186 693.944214,158.525055 693.943665,156.699478 
	C693.943115,154.856354 693.897766,152.578796 696.316223,152.420319 
	C700.612854,152.138794 701.138306,149.166565 701.676453,145.954330 
	C702.087769,143.499008 702.628967,141.065475 703.110168,138.621796 
	C703.624512,136.010147 704.882996,134.505524 707.874878,134.771103 
	C710.881104,135.037949 711.232605,136.956650 711.230347,139.297241 
	C711.228088,141.627380 711.241394,143.957520 711.247864,146.747559 
z"/>
<path fill="#000000" opacity="1.000000" stroke="none" 
	d="
M634.638184,197.962158 
	C634.632019,184.636948 634.550781,171.806885 634.685486,158.979111 
	C634.711670,156.488739 633.138306,152.976501 637.554016,152.159515 
	C641.889771,151.357346 642.970886,154.260193 643.642761,158.175934 
	C649.377625,152.976883 655.510925,150.273483 662.983887,151.652344 
	C671.229980,153.173813 677.251709,162.307571 675.492065,170.451767 
	C674.809021,173.613144 672.644531,173.192307 670.548584,173.219894 
	C668.384949,173.248398 665.945068,173.480743 665.767334,170.292862 
	C665.578125,166.898773 664.108337,164.221481 661.427185,162.217758 
	C656.163269,158.283951 649.551208,160.146332 647.059753,166.233673 
	C645.846802,169.197220 645.293152,172.267700 645.311584,175.488327 
	C645.362976,184.485107 645.135559,193.487503 645.386902,202.477386 
	C645.505249,206.712128 643.557068,207.424118 639.958618,207.418213 
	C636.356628,207.412308 634.087463,206.674103 634.621643,202.453491 
	C634.787720,201.142014 634.641663,199.791016 634.638184,197.962158 
z"/>
<path fill="#000000" opacity="1.000000" stroke="none" 
	d="
M880.923767,141.054443 
	C880.928528,161.195816 880.942993,180.846710 880.928284,200.497589 
	C880.923218,207.271423 880.393860,207.552902 873.891174,207.393906 
	C870.009155,207.298981 869.698853,205.148605 869.706055,202.187042 
	C869.741089,187.865311 869.700378,173.543427 869.693481,159.221588 
	C869.689514,151.061462 869.859558,142.896942 869.636047,134.743042 
	C869.520325,130.520126 871.616272,129.770599 875.168945,129.759903 
	C878.648926,129.749390 881.135010,130.355453 880.935303,134.569733 
	C880.840820,136.563538 880.921021,138.565613 880.923767,141.054443 
z"/>
<path fill="#000000" opacity="1.000000" stroke="none" 
	d="
M380.285950,272.811249 
	C382.701111,278.671936 384.984436,284.171509 387.747833,290.827484 
	C390.766998,283.484375 393.595795,277.348206 395.806244,270.996765 
	C397.630341,265.755463 400.844727,264.580536 406.244965,266.234406 
	C406.244965,276.297119 406.258514,286.397217 406.232361,296.497192 
	C406.227722,298.288574 405.297028,299.257111 403.414215,299.176331 
	C401.138977,299.078705 400.779022,297.509888 400.774292,295.723358 
	C400.756317,288.904694 400.767029,282.085938 400.026398,275.008362 
	C397.244415,281.576996 394.481720,288.153900 391.668396,294.709106 
	C390.852417,296.610382 390.640411,299.052917 387.748016,299.242004 
	C384.510773,299.453674 384.107605,296.796448 383.236389,294.767090 
	C380.425323,288.219208 377.738861,281.617828 374.287598,275.106567 
	C374.287598,281.636902 374.329956,288.167725 374.261108,294.697327 
	C374.241150,296.593231 374.678101,299.071991 371.645111,299.120209 
	C368.649078,299.167816 368.880829,296.757355 368.864532,294.808685 
	C368.799133,286.988159 368.738373,279.165771 368.853241,271.346710 
	C368.886444,269.087677 367.935577,266.081940 371.864319,265.631134 
	C375.322021,265.234283 378.208405,265.492676 379.066284,269.666168 
	C379.264008,270.628052 379.782990,271.523926 380.285950,272.811249 
z"/>
<path fill="#000000" opacity="1.000000" stroke="none" 
	d="
M922.316040,198.937225 
	C921.639771,202.489853 924.447998,207.299210 917.948792,207.372696 
	C911.672546,207.443649 911.591064,207.539001 911.596558,201.158249 
	C911.608704,186.993896 911.661682,172.829208 911.574951,158.665421 
	C911.551636,154.865433 911.531250,151.881653 916.850281,151.890747 
	C921.909241,151.899399 922.427063,154.384369 922.377930,158.454590 
	C922.217041,171.783829 922.317078,185.116211 922.316040,198.937225 
z"/>
<path fill="#000000" opacity="1.000000" stroke="none" 
	d="
M790.647034,290.099915 
	C790.544312,287.307007 790.629028,284.957916 790.285339,282.673279 
	C789.962341,280.527008 789.331604,278.241852 786.419678,278.336945 
	C783.475159,278.433044 781.702637,280.258209 781.452026,282.984833 
	C781.102905,286.781799 781.317444,290.627502 781.183838,294.448608 
	C781.111633,296.513031 781.624390,299.180389 778.268433,299.130432 
	C775.179016,299.084473 775.730957,296.571350 775.706665,294.704498 
	C775.630981,288.884125 775.636230,283.061310 775.713074,277.240845 
	C775.747986,274.596008 776.663574,272.658020 779.571045,274.840302 
	C780.836487,275.790070 781.528442,275.402313 782.616150,274.854645 
	C786.113403,273.093536 789.682922,272.868713 792.974976,275.235718 
	C794.616150,276.415741 795.649109,275.484467 797.013000,274.869751 
	C804.749634,271.382690 810.100525,274.743378 810.392273,283.240692 
	C810.540283,287.551117 811.288574,291.854004 810.525452,296.181580 
	C810.249878,297.744324 809.961914,299.144196 807.938782,299.186768 
	C805.667419,299.234528 805.119995,297.754120 805.080750,295.942169 
	C804.994202,291.952332 805.075256,287.957733 804.932190,283.970673 
	C804.842590,281.470795 804.773132,278.524261 801.328125,278.434814 
	C797.831787,278.344055 796.401184,280.872925 796.212341,283.999084 
	C796.001953,287.481323 796.155029,290.984283 796.004395,294.471924 
	C795.916504,296.507233 796.466064,299.254822 793.078613,299.115234 
	C789.963501,298.986877 790.854736,296.386719 790.684814,294.561676 
	C790.561951,293.242004 790.652161,291.902527 790.647034,290.099915 
z"/>
<path fill="#000000" opacity="1.000000" stroke="none" 
	d="
M285.987244,288.589447 
	C283.607971,299.315125 279.196442,301.745758 269.186737,297.621368 
	C266.886108,296.673431 266.467651,299.257202 264.789398,298.774628 
	C263.392761,297.945496 263.704346,296.485687 263.698059,295.225494 
	C263.653290,286.242554 263.638977,277.259094 263.691376,268.276276 
	C263.702393,266.386261 263.228485,263.923584 266.307312,263.890289 
	C269.232483,263.858612 269.072510,266.126984 269.223846,268.140442 
	C269.382996,270.258240 268.790131,272.449890 269.749115,274.499207 
	C281.463531,272.208618 286.222992,276.217865 285.987244,288.589447 
M280.560455,284.089172 
	C279.788910,280.812592 278.606598,277.908936 274.441589,278.259705 
	C270.653107,278.578827 269.631470,281.287537 269.319305,284.510223 
	C268.646271,291.458191 270.389832,294.896881 274.605774,294.959686 
	C278.902374,295.023682 280.618439,292.157990 280.560455,284.089172 
z"/>
<path fill="#000000" opacity="1.000000" stroke="none" 
	d="
M436.869019,299.320740 
	C429.973206,300.538422 425.417114,298.639709 425.180908,293.806061 
	C424.622894,282.385834 434.654388,285.296722 440.801239,282.968872 
	C441.593811,280.794189 440.713684,279.223541 438.770538,278.587158 
	C436.720490,277.915771 434.466064,277.749176 432.598297,279.278900 
	C431.716644,280.001007 431.159546,281.169464 430.218781,281.756561 
	C429.058929,282.480377 427.616058,282.534515 426.541443,281.448517 
	C425.560211,280.456940 425.932220,279.252655 426.540741,278.226135 
	C429.407623,273.390076 434.127136,273.438507 438.860016,273.714478 
	C442.935089,273.952087 445.664703,275.810425 446.616272,280.080688 
	C447.354218,283.392151 447.002991,286.699097 447.161713,290.006805 
	C447.239716,291.632538 446.809967,293.455627 448.320496,294.656128 
	C449.750519,295.792633 451.047852,297.071442 449.471649,298.714020 
	C448.130646,300.111450 446.150024,300.251251 444.377655,299.267181 
	C443.394836,298.721466 442.578857,297.875275 441.620392,297.110840 
	C440.171814,297.815277 438.703857,298.529144 436.869019,299.320740 
M431.983002,294.600677 
	C437.546021,295.999451 439.942993,294.450287 440.725555,288.823151 
	C438.332428,287.922516 435.897919,287.988556 433.607574,289.013550 
	C431.406433,289.998627 429.298950,291.292511 431.983002,294.600677 
z"/>
<path fill="#000000" opacity="1.000000" stroke="none" 
	d="
M703.484436,273.705139 
	C711.785400,273.789490 714.246033,276.250336 714.319824,284.172699 
	C714.353882,287.834076 714.363892,291.496826 714.297607,295.157410 
	C714.265198,296.948914 714.485901,299.077057 711.756897,299.148163 
	C708.783203,299.225555 708.835388,296.998199 708.798340,294.978821 
	C708.731262,291.318054 708.706909,287.655426 708.740295,283.994263 
	C708.769470,280.796265 707.974304,278.277100 704.152893,278.281647 
	C700.495544,278.285980 698.631165,280.496124 698.384705,283.877380 
	C698.106934,287.687592 698.278992,291.528809 698.181335,295.354675 
	C698.133301,297.237061 697.964539,299.180420 695.340332,299.160278 
	C692.629395,299.139465 692.705994,297.098541 692.699463,295.266632 
	C692.666992,286.112518 692.663513,276.958160 692.696838,267.804047 
	C692.703430,265.992859 692.557678,263.912659 695.290527,263.877014 
	C697.868164,263.843414 698.153259,265.703552 698.198181,267.632782 
	C698.251587,269.924164 698.210754,272.217773 698.210754,274.290070 
	C700.374512,275.124512 701.593018,273.675598 703.484436,273.705139 
z"/>
<path fill="#000000" opacity="1.000000" stroke="none" 
	d="
M829.788574,282.676758 
	C829.347595,277.672394 831.705505,275.073792 835.932495,273.960968 
	C841.381226,272.526520 847.000916,273.995270 849.136536,277.373810 
	C849.935364,278.637329 850.891663,280.119904 849.335999,281.368744 
	C847.984009,282.454163 846.308777,282.030731 845.288513,280.836670 
	C843.898743,279.210205 842.418091,278.089569 840.220703,278.210052 
	C838.460510,278.306519 836.136230,277.740417 835.653625,280.129028 
	C835.140991,282.666260 837.636230,282.865997 839.240967,283.408234 
	C841.273315,284.095001 843.453552,284.332550 845.514221,284.949860 
	C848.932556,285.973907 850.894409,288.358887 850.760437,291.940002 
	C850.621582,295.652954 848.562866,298.202850 844.909973,299.104614 
	C839.917053,300.337128 834.948486,300.542755 830.869751,296.711121 
	C829.488647,295.413757 827.810913,293.346436 829.677429,291.547699 
	C831.389038,289.898315 833.330811,290.757629 834.597595,292.839630 
	C835.432922,294.212524 836.855713,294.767578 838.380066,294.994324 
	C840.899292,295.369049 843.910461,295.798859 844.532837,292.606659 
	C845.106873,289.662476 842.085266,289.720398 840.080322,289.126526 
	C836.173767,287.969452 831.696960,287.731903 829.788574,282.676758 
z"/>
<path fill="#000000" opacity="1.000000" stroke="none" 
	d="
M607.015259,279.213165 
	C606.275757,283.170319 604.135254,282.104126 602.294556,280.745605 
	C601.118774,279.877838 600.327698,278.385040 598.676025,278.359161 
	C596.484497,278.324738 593.364624,277.141998 592.744629,280.203674 
	C592.155090,283.114777 595.380920,282.977631 597.283142,283.618988 
	C599.320312,284.305878 601.516968,284.588074 603.469238,285.445038 
	C608.105530,287.480377 609.243958,292.805603 606.024780,296.637451 
	C602.500000,300.833038 591.353149,300.946625 587.756714,296.714966 
	C586.511047,295.249298 584.826782,293.256866 586.728333,291.506378 
	C588.488892,289.885620 590.400208,290.826477 591.642517,292.883545 
	C592.363464,294.077301 593.573364,294.656464 594.883118,295.050934 
	C597.503601,295.840057 600.430664,295.729889 601.361755,293.118378 
	C602.550659,289.784241 599.129761,289.845825 597.062866,289.148834 
	C594.711670,288.355957 592.186646,287.884857 590.041138,286.716034 
	C585.756775,284.382172 585.563416,278.425537 589.461670,275.491791 
	C594.427307,271.754913 603.474670,273.485748 607.015259,279.213165 
z"/>
<path fill="#000000" opacity="1.000000" stroke="none" 
	d="
M868.249878,283.647644 
	C870.306396,275.876465 874.388794,272.971069 881.750671,273.713867 
	C887.774963,274.321716 891.035461,278.194183 891.614868,285.429474 
	C892.422424,295.512817 885.574158,301.671844 876.228882,299.266876 
	C870.342041,297.751923 867.477356,292.358582 868.249878,283.647644 
M875.562073,280.039764 
	C874.112061,281.784515 873.652283,283.981567 873.562683,286.062347 
	C873.434204,289.043976 873.942078,292.138306 876.545471,294.095764 
	C878.383850,295.477997 880.661804,295.309906 882.698059,294.328857 
	C885.694763,292.885071 887.284424,285.648041 885.241272,281.684357 
	C883.161377,277.649261 879.860596,277.241425 875.562073,280.039764 
z"/>
<path fill="#000000" opacity="1.000000" stroke="none" 
	d="
M745.851318,273.678528 
	C754.277954,275.009460 757.620728,279.947510 756.564575,288.879272 
	C755.715393,296.060455 751.138062,300.045441 744.184875,299.656799 
	C737.110046,299.261414 732.772339,294.218750 732.854858,286.485565 
	C732.942932,278.239899 737.102661,273.995605 745.851318,273.678528 
M738.711792,285.024902 
	C738.033020,287.063812 738.721619,288.969147 739.321899,290.867340 
	C740.235535,293.756714 742.350403,295.454254 745.266785,295.216492 
	C748.373474,294.963226 750.373108,292.970642 750.694580,289.681061 
	C750.823669,288.360321 750.968689,287.026642 750.919739,285.705750 
	C750.789734,282.200500 750.154175,278.926208 745.838135,278.339478 
	C741.377014,277.733032 739.455627,280.232635 738.711792,285.024902 
z"/>
<path fill="#000000" opacity="1.000000" stroke="none" 
	d="
M544.718018,292.480194 
	C544.661804,287.202179 544.612183,282.373505 544.638184,277.545258 
	C544.647156,275.872864 544.636841,274.025024 547.045166,273.940887 
	C549.671326,273.849213 549.907776,275.776855 549.952209,277.671173 
	C550.041931,281.499420 550.006592,285.330353 550.060425,289.159668 
	C550.102722,292.172150 550.538330,295.172302 554.424744,295.116699 
	C558.108093,295.063995 560.287048,292.763855 560.557251,289.130219 
	C560.815918,285.651093 560.595642,282.139008 560.712646,278.645660 
	C560.780823,276.611267 560.133240,273.829224 563.532593,273.941406 
	C566.807312,274.049438 566.200989,276.777283 566.247803,278.828278 
	C566.338928,282.822906 566.263489,286.820984 566.304871,290.817139 
	C566.320068,292.283417 566.067200,293.902679 567.675842,294.825745 
	C569.204956,295.703094 569.972900,296.996307 568.935364,298.521393 
	C567.887878,300.061127 565.816956,300.565277 564.488647,299.572998 
	C561.457153,297.308319 558.793091,298.408936 555.738220,299.355804 
	C550.540344,300.966827 546.925232,298.666870 544.718018,292.480194 
z"/>
<path fill="#000000" opacity="1.000000" stroke="none" 
	d="
M312.583557,286.175537 
	C313.196320,287.520691 313.675323,288.545898 314.230835,289.734772 
	C319.407867,285.452057 316.958893,275.805115 325.701447,273.282257 
	C326.104462,277.847717 324.254181,280.556702 323.162689,283.416504 
	C320.738708,289.767578 318.157257,296.063477 315.450928,302.299805 
	C314.074341,305.471985 311.778809,307.928558 308.053345,308.198883 
	C305.453949,308.387482 303.410034,307.656616 304.087372,304.346832 
	C311.754974,302.511169 312.546356,300.939880 309.709412,293.648407 
	C307.319092,287.504852 304.963318,281.347870 302.557831,275.107452 
	C305.756622,272.921600 307.624176,273.776428 308.810547,276.593842 
	C310.097412,279.650024 311.242737,282.765778 312.583557,286.175537 
z"/>
<path fill="#000000" opacity="1.000000" stroke="none" 
	d="
M916.208923,290.065521 
	C916.163696,292.532898 916.165405,294.530365 916.057983,296.521912 
	C915.962219,298.297791 915.018677,299.235260 913.157593,299.163086 
	C911.471802,299.097778 910.782959,298.108704 910.774658,296.584442 
	C910.738403,289.930237 910.723572,283.275696 910.745239,276.621460 
	C910.749939,275.162628 911.832458,273.267792 912.927551,274.138794 
	C916.193237,276.736298 918.769287,273.992920 921.614563,273.690521 
	C928.358215,272.973846 932.126770,276.127197 932.297180,282.904816 
	C932.401672,287.061859 932.328796,291.224091 932.291748,295.383636 
	C932.274963,297.270935 932.198486,299.234192 929.525940,299.166107 
	C926.905823,299.099365 926.846680,297.114716 926.814026,295.252319 
	C926.746948,291.426178 926.733215,287.598602 926.744934,283.771790 
	C926.754211,280.776398 925.947510,278.448212 922.428223,278.291962 
	C919.043762,278.141693 917.059631,280.007629 916.466736,283.123932 
	C916.067749,285.220764 916.273315,287.432617 916.208923,290.065521 
z"/>
<path fill="#000000" opacity="1.000000" stroke="none" 
	d="
M665.066406,280.059143 
	C665.064270,285.193787 665.117554,289.840637 665.026550,294.484680 
	C664.985962,296.557098 665.378967,299.123169 662.090759,299.197418 
	C658.812195,299.271515 659.015869,296.789276 658.990784,294.653961 
	C658.914795,288.183746 658.783386,281.709045 658.949707,275.243195 
	C659.042664,271.627106 657.802002,269.927979 654.066223,270.351837 
	C653.089417,270.462677 652.078430,270.320953 651.087036,270.244995 
	C649.446899,270.119293 648.799316,269.149902 648.864746,267.571442 
	C648.928284,266.038055 649.928772,265.629639 651.206482,265.622711 
	C658.340149,265.583984 665.473938,265.556763 672.607727,265.551880 
	C674.162781,265.550812 675.121521,266.289459 675.114319,267.955811 
	C675.106995,269.661133 674.035645,270.226257 672.534851,270.306549 
	C672.203613,270.324280 671.861694,270.401733 671.542603,270.347046 
	C665.536133,269.317749 664.414307,272.644287 665.047668,277.580627 
	C665.131470,278.233734 665.061768,278.906525 665.066406,280.059143 
z"/>
<path fill="#000000" opacity="1.000000" stroke="none" 
	d="
M525.278870,293.943176 
	C521.670959,299.276917 516.800659,300.973297 511.361023,299.102661 
	C506.756165,297.519135 503.479309,291.472961 504.030823,285.577667 
	C504.845673,276.867554 509.956604,272.500061 517.872070,273.768738 
	C520.634155,274.211456 522.973022,275.495605 524.381775,277.920197 
	C525.457214,279.771118 527.768677,282.126312 524.903320,283.896454 
	C522.528748,285.363373 521.155701,283.345581 520.217773,281.065125 
	C519.291382,278.812622 517.222534,278.152588 514.857178,278.248840 
	C512.316101,278.352295 511.014130,279.858856 510.149994,282.035797 
	C508.914551,285.147949 509.197968,288.205505 510.254578,291.287384 
	C511.114777,293.796448 512.938171,295.152344 515.467041,295.202637 
	C517.749878,295.248047 519.782776,294.283234 520.550110,291.919220 
	C521.188232,289.953400 522.094666,288.367950 524.367432,289.046814 
	C527.022705,289.839966 525.917358,291.861176 525.278870,293.943176 
z"/>
<path fill="#000000" opacity="1.000000" stroke="none" 
	d="
M477.364746,278.461182 
	C474.576660,279.849823 474.278748,282.126831 474.258118,284.531097 
	C474.225311,288.354370 474.225647,292.178314 474.144745,296.000580 
	C474.105469,297.856934 473.444763,299.241058 471.213196,299.173309 
	C469.197418,299.112122 468.733429,297.799408 468.728424,296.159332 
	C468.708588,289.676208 468.707001,283.192902 468.734253,276.709839 
	C468.740417,275.255341 469.636230,273.397552 470.892487,274.163757 
	C473.901855,275.999176 476.302704,273.920013 478.955353,273.701019 
	C483.838348,273.297913 487.293854,275.995270 487.666443,280.480042 
	C487.789062,281.955963 487.660034,283.227966 486.042877,283.633575 
	C484.630096,283.987915 483.318176,283.608582 482.835693,282.055542 
	C482.042725,279.503021 480.533936,278.073730 477.364746,278.461182 
z"/>
<path fill="#000000" opacity="1.000000" stroke="none" 
	d="
M915.178528,140.267105 
	C909.557861,140.029648 911.117615,136.129745 911.036499,133.288544 
	C910.944397,130.057831 913.276978,129.830933 915.787842,129.776596 
	C921.996277,129.642258 922.552551,130.342621 922.388916,136.371902 
	C922.243835,141.718414 918.404663,139.891495 915.178528,140.267105 
z"/>
</svg>